<svg version="1.2" xmlns="http://www.w3.org/2000/svg" viewBox="0 0 2532 2760" width="2532" height="2760">
	<title>324985434_db55d206-9efb-4423-b91d-83d0369be998</title>
	<style>
		tspan { white-space:pre } 
		.s0 { fill: #ed1c24 } 
		.t1 { font-size: 146px;text-transform: uppercase;fill: #202020;font-weight: bold;font-family: "Myriad Pro" } 
	</style>
	<g id="Design">
		<path id="Color Fill 1" fill-rule="evenodd" class="s0" d="m274 269.9c657.6 0 1315.3 0 1972.9 0 0 657.6 0 1315.3 0 1972.9-657.6 0-1315.3 0-1972.9 0 0-657.6 0-1315.3 0-1972.9zm174.2 174.3c0 541.4 0 1082.9 0 1624.4 543 0 1086.2 0 1629.2 0q-2.4-4.7-4.7-9.5c0-538.2 0-1076.7 0-1614.9-541.5 0-1083 0-1624.5 0zm748.7 202.4c887.3-21.8 882.1 1104.4 145.9 1219.5-438.1 68.5-822.5-383-659.1-819.3 91.1-243.4 312.4-389.3 513.2-400.2z"/>
	</g>
	<g id="Text">
		<text id="Non VEG" style="transform: matrix(2,0,0,2,1258.187,2564.733)" >
			<tspan x="-287.3" y="0" class="t1">NON VEG
</tspan>
		</text>
	</g>
</svg>